<svg width="100" height="100" viewBox="0 0 100 100" fill="none" xmlns="http://www.w3.org/2000/svg">
<path d="M86.7186 50.0001C86.7186 50.6217 86.4717 51.2179 86.0322 51.6574C85.5926 52.097 84.9965 52.3439 84.3749 52.3439H21.285L45.4061 76.4689C45.6364 76.6835 45.8211 76.9422 45.9492 77.2297C46.0773 77.5172 46.1462 77.8276 46.1517 78.1423C46.1573 78.4569 46.0994 78.7695 45.9815 79.0614C45.8636 79.3532 45.6882 79.6183 45.4656 79.8409C45.2431 80.0634 44.978 80.2389 44.6861 80.3568C44.3943 80.4746 44.0817 80.5325 43.767 80.527C43.4523 80.5214 43.142 80.4525 42.8545 80.3244C42.567 80.1963 42.3082 80.0117 42.0936 79.7814L13.9686 51.6564C13.5297 51.2169 13.2832 50.6212 13.2832 50.0001C13.2832 49.379 13.5297 48.7833 13.9686 48.3439L42.0936 20.2189C42.5379 19.8049 43.1256 19.5795 43.7328 19.5902C44.34 19.6009 44.9193 19.8469 45.3487 20.2763C45.7781 20.7057 46.0241 21.2851 46.0348 21.8922C46.0455 22.4994 45.8201 23.0871 45.4061 23.5314L21.285 47.6564H84.3749C84.9965 47.6564 85.5926 47.9033 86.0322 48.3429C86.4717 48.7824 86.7186 49.3785 86.7186 50.0001Z" fill="#1E6289"/>
</svg>
