<svg width="50" height="50" viewBox="0 0 50 50" fill="none" xmlns="http://www.w3.org/2000/svg">
<g clip-path="url(#clip0_255_11)">
<path d="M8.68016 15.9723L16.6663 18.2778L25.444 11.9028L12.8468 12.2639C12.7235 12.2707 12.6039 12.3089 12.4996 12.3751L8.51349 14.6667C8.3895 14.7354 8.28897 14.8397 8.2249 14.9662C8.16084 15.0926 8.13619 15.2354 8.15414 15.376C8.17209 15.5166 8.23182 15.6486 8.32559 15.7549C8.41937 15.8612 8.54288 15.9369 8.68016 15.9723Z" fill="#172D79"/>
<path d="M47.9442 8.83335L39.1942 6.94446C38.4583 6.7847 37.6967 6.78512 36.961 6.94568C36.2253 7.10624 35.5327 7.42319 34.9303 7.87502L8.49975 27.0833L2.15252 26.8056C1.78896 26.7932 1.4307 26.8954 1.12833 27.0976C0.825958 27.2998 0.594753 27.592 0.46736 27.9327C0.339968 28.2734 0.322825 28.6456 0.418351 28.9966C0.513878 29.3476 0.717248 29.6597 0.999745 29.8889L7.1803 34.7917C7.28205 34.8738 7.40316 34.9284 7.53204 34.9502C7.66093 34.9721 7.79327 34.9606 7.91641 34.9167C9.6803 34.2361 16.2497 30.75 24.0136 26.4861L25.5692 42.4722C25.5824 42.6107 25.6331 42.7429 25.716 42.8546C25.7988 42.9664 25.9105 43.0534 26.0392 43.1062C26.1678 43.1591 26.3084 43.1759 26.4459 43.1547C26.5834 43.1336 26.7124 43.0753 26.8192 42.9861L30.2914 40.0972C30.4815 39.9378 30.6093 39.7165 30.6525 39.4722L33.9442 21.0139C39.4997 17.9306 44.8053 14.9445 48.5414 12.8333C48.9291 12.6224 49.2426 12.2973 49.4394 11.9022C49.6362 11.5071 49.7068 11.0611 49.6416 10.6245C49.5765 10.1879 49.3787 9.78195 49.075 9.46157C48.7714 9.14118 48.3766 8.92187 47.9442 8.83335Z" fill="#172D79"/>
</g>
<defs>
<clipPath id="clip0_255_11">
<rect width="50" height="50" fill="white"/>
</clipPath>
</defs>
</svg>
