<svg width="92" height="92" viewBox="0 0 92 92" fill="none" xmlns="http://www.w3.org/2000/svg">
<g clip-path="url(#clip0_916_25)">
<path d="M15.9725 29.3889L30.667 33.6311L46.8181 21.9011L23.6392 22.5656C23.4122 22.578 23.1923 22.6484 23.0003 22.77L15.6658 26.9867C15.4377 27.1131 15.2527 27.305 15.1348 27.5377C15.017 27.7704 14.9716 28.033 15.0046 28.2918C15.0377 28.5505 15.1476 28.7934 15.3201 28.989C15.4927 29.1845 15.7199 29.3239 15.9725 29.3889Z" fill="white" fill-opacity="0.86"/>
<path d="M88.2179 16.2533L72.1179 12.7778C70.7638 12.4838 69.3624 12.4846 68.0087 12.78C66.655 13.0754 65.3807 13.6586 64.2723 14.49L15.6401 49.8333L3.96119 49.3222C3.29224 49.2995 2.63304 49.4874 2.07667 49.8595C1.52031 50.2317 1.09489 50.7692 0.86049 51.3961C0.626088 52.0231 0.594544 52.7078 0.770314 53.3537C0.946083 53.9995 1.32028 54.5738 1.84008 54.9955L13.2123 64.0166C13.3995 64.1677 13.6224 64.2681 13.8595 64.3084C14.0967 64.3487 14.3402 64.3274 14.5667 64.2466C17.8123 62.9944 29.9001 56.58 44.1856 48.7344L47.0479 78.1489C47.0721 78.4036 47.1655 78.6469 47.3179 78.8525C47.4703 79.0581 47.6759 79.2181 47.9126 79.3154C48.1493 79.4127 48.4081 79.4436 48.661 79.4046C48.9139 79.3657 49.1514 79.2584 49.3479 79.0944L55.7367 73.7789C56.0865 73.4855 56.3217 73.0784 56.4012 72.6289L62.4579 38.6655C72.6801 32.9922 82.4423 27.4978 89.3167 23.6133C90.0302 23.2251 90.607 22.627 90.9691 21.9C91.3312 21.173 91.4611 20.3523 91.3412 19.549C91.2212 18.7457 90.8573 17.9987 90.2986 17.4092C89.7399 16.8197 89.0135 16.4162 88.2179 16.2533Z" fill="white" fill-opacity="0.86"/>
</g>
<defs>
<clipPath id="clip0_916_25">
<rect width="92" height="92" fill="white"/>
</clipPath>
</defs>
</svg>
