<svg width="50" height="50" viewBox="0 0 50 50" fill="none" xmlns="http://www.w3.org/2000/svg">
<path d="M35.417 25C35.417 28.5417 32.7087 31.25 29.167 31.25C25.6253 31.25 22.917 28.5417 22.917 25C22.917 21.4583 25.6253 18.75 29.167 18.75C32.7087 18.75 35.417 21.4583 35.417 25ZM45.8337 14.5833V37.5C45.8337 39.7917 43.9587 41.6667 41.667 41.6667H8.33366C6.04199 41.6667 4.16699 39.7917 4.16699 37.5V14.5833C4.16699 12.2917 6.04199 10.4167 8.33366 10.4167V8.33333H16.667V10.4167H20.8337L22.917 6.25H35.417L37.5003 10.4167H41.667C43.9587 10.4167 45.8337 12.2917 45.8337 14.5833ZM15.6253 18.75C15.6253 17.0833 14.167 15.625 12.5003 15.625C10.8337 15.625 9.37533 17.0833 9.37533 18.75C9.37533 20.4167 10.8337 21.875 12.5003 21.875C14.167 21.875 15.6253 20.4167 15.6253 18.75ZM39.5837 25C39.5837 19.1667 35.0003 14.5833 29.167 14.5833C23.3337 14.5833 18.7503 19.1667 18.7503 25C18.7503 30.8333 23.3337 35.4167 29.167 35.4167C35.0003 35.4167 39.5837 30.8333 39.5837 25Z" fill="black"/>
</svg>
