<svg width="100" height="100" viewBox="0 0 100 100" fill="none" xmlns="http://www.w3.org/2000/svg">
<rect width="100" height="100" rx="30" fill="url(#paint0_linear_913_23)"/>
<g clip-path="url(#clip0_913_23)">
<path d="M49.5 18.25C32.2406 18.25 18.25 32.2406 18.25 49.5C18.25 66.7594 32.2406 80.75 49.5 80.75C55.1932 80.7588 60.7796 79.2044 65.65 76.2562L75.125 79.0437C75.669 79.2038 76.2461 79.2143 76.7955 79.0742C77.345 78.9341 77.8466 78.6486 78.2476 78.2476C78.6486 77.8467 78.9341 77.3451 79.0742 76.7956C79.2143 76.2461 79.2038 75.669 79.0437 75.125L76.2562 65.65C79.2032 60.7791 80.7575 55.193 80.75 49.5C80.75 32.2406 66.7593 18.25 49.5 18.25ZM49.5 24.5C53.9761 24.4992 58.3704 25.7002 62.2239 27.9775C66.0775 30.2549 69.2489 33.5251 71.407 37.4467C73.5651 41.3683 74.6307 45.7973 74.4926 50.2713C74.3545 54.7454 73.0177 59.1003 70.6218 62.8812C69.9125 63.9969 69.6687 65.4031 70.0687 66.7562L71.4468 71.4469L66.7562 70.0688C65.4031 69.6688 63.9968 69.9125 62.8812 70.6219C59.6052 72.6962 55.8916 73.9801 52.0339 74.372C48.1762 74.7639 44.2803 74.2531 40.654 72.8799C37.0278 71.5068 33.7706 69.309 31.1401 66.4603C28.5095 63.6115 26.5776 60.1899 25.4972 56.4659C24.4168 52.742 24.2174 48.8177 24.9148 45.0035C25.6122 41.1892 27.1873 37.5894 29.5156 34.4887C31.8439 31.388 34.8615 28.8714 38.3299 27.1378C41.7983 25.4042 45.6224 24.5011 49.5 24.5ZM60.4375 44.8125C59.1943 44.8125 58.002 45.3064 57.1229 46.1854C56.2438 47.0645 55.75 48.2568 55.75 49.5C55.75 50.7432 56.2438 51.9355 57.1229 52.8146C58.002 53.6936 59.1943 54.1875 60.4375 54.1875C61.6807 54.1875 62.873 53.6936 63.752 52.8146C64.6311 51.9355 65.125 50.7432 65.125 49.5C65.125 48.2568 64.6311 47.0645 63.752 46.1854C62.873 45.3064 61.6807 44.8125 60.4375 44.8125ZM38.5625 44.8125C37.3193 44.8125 36.127 45.3064 35.2479 46.1854C34.3688 47.0645 33.875 48.2568 33.875 49.5C33.875 50.7432 34.3688 51.9355 35.2479 52.8146C36.127 53.6936 37.3193 54.1875 38.5625 54.1875C39.8057 54.1875 40.998 53.6936 41.877 52.8146C42.7561 51.9355 43.25 50.7432 43.25 49.5C43.25 48.2568 42.7561 47.0645 41.877 46.1854C40.998 45.3064 39.8057 44.8125 38.5625 44.8125Z" fill="white"/>
</g>
<defs>
<linearGradient id="paint0_linear_913_23" x1="50" y1="0" x2="50" y2="100" gradientUnits="userSpaceOnUse">
<stop stop-color="#378AD7"/>
<stop offset="1" stop-color="#A7D4ED"/>
</linearGradient>
<clipPath id="clip0_913_23">
<rect width="75" height="75" fill="white" transform="matrix(-1 0 0 1 87 12)"/>
</clipPath>
</defs>
</svg>
