<svg width="34" height="34" viewBox="0 0 34 34" fill="none" xmlns="http://www.w3.org/2000/svg">
<circle cx="17" cy="17" r="16.5" fill="white" stroke="#D9DBE1"/>
<g clip-path="url(#clip0_237_20)">
<path d="M25.1665 16.861H18.1387V9.83322C18.1387 9.66378 18.0714 9.50128 17.9516 9.38146C17.8318 9.26165 17.6693 9.19434 17.4998 9.19434C17.3304 9.19434 17.1679 9.26165 17.0481 9.38146C16.9282 9.50128 16.8609 9.66378 16.8609 9.83322V16.861H9.83316C9.66371 16.861 9.50121 16.9283 9.38139 17.0481C9.26158 17.1679 9.19427 17.3304 9.19427 17.4999C9.19111 17.5829 9.2058 17.6657 9.23732 17.7425C9.26885 17.8194 9.31649 17.8887 9.37704 17.9456C9.43758 18.0025 9.50962 18.0457 9.5883 18.0725C9.66698 18.0992 9.75048 18.1087 9.83316 18.1004H16.8609V25.1666C16.8609 25.336 16.9282 25.4985 17.0481 25.6183C17.1679 25.7381 17.3304 25.8054 17.4998 25.8054C17.6693 25.8054 17.8318 25.7381 17.9516 25.6183C18.0714 25.4985 18.1387 25.336 18.1387 25.1666V18.1388H25.1665C25.3359 18.1388 25.4984 18.0715 25.6183 17.9517C25.7381 17.8318 25.8054 17.6693 25.8054 17.4999C25.8054 17.3304 25.7381 17.1679 25.6183 17.0481C25.4984 16.9283 25.3359 16.861 25.1665 16.861Z" fill="#333333"/>
</g>
<defs>
<clipPath id="clip0_237_20">
<rect width="23" height="23" fill="white" transform="translate(6 6)"/>
</clipPath>
</defs>
</svg>
