<svg width="80" height="80" viewBox="0 0 80 80" fill="none" xmlns="http://www.w3.org/2000/svg">
<rect width="80" height="80" rx="5" fill="#D7D7D7"/>
<path d="M70.0607 28.0607C70.6464 27.4749 70.6464 26.5251 70.0607 25.9393L60.5147 16.3934C59.9289 15.8076 58.9792 15.8076 58.3934 16.3934C57.8076 16.9792 57.8076 17.9289 58.3934 18.5147L66.8787 27L58.3934 35.4853C57.8076 36.0711 57.8076 37.0208 58.3934 37.6066C58.9792 38.1924 59.9289 38.1924 60.5147 37.6066L70.0607 28.0607ZM21 28.5L69 28.5L69 25.5L21 25.5L21 28.5Z" fill="white"/>
<path d="M10.9393 50.9393C10.3536 51.5251 10.3536 52.4749 10.9393 53.0607L20.4853 62.6066C21.0711 63.1924 22.0208 63.1924 22.6066 62.6066C23.1924 62.0208 23.1924 61.0711 22.6066 60.4853L14.1213 52L22.6066 43.5147C23.1924 42.9289 23.1924 41.9792 22.6066 41.3934C22.0208 40.8076 21.0711 40.8076 20.4853 41.3934L10.9393 50.9393ZM12 53.5H59V50.5H12V53.5Z" fill="white"/>
</svg>
