<svg width="50" height="50" viewBox="0 0 50 50" fill="none" xmlns="http://www.w3.org/2000/svg">
<rect width="50" height="50" rx="5" transform="matrix(1 0 0 -1 0 50)" fill="white"/>
<path d="M43.7071 21.7071C44.0976 21.3166 44.0976 20.6834 43.7071 20.2929L37.3431 13.9289C36.9526 13.5384 36.3195 13.5384 35.9289 13.9289C35.5384 14.3195 35.5384 14.9526 35.9289 15.3431L41.5858 21L35.9289 26.6569C35.5384 27.0474 35.5384 27.6805 35.9289 28.0711C36.3195 28.4616 36.9526 28.4616 37.3431 28.0711L43.7071 21.7071ZM5 22L43 22L43 20L5 20L5 22Z" fill="#999999"/>
<rect x="34" y="22" width="14" height="9" fill="white"/>
<path d="M8.29289 26.2929C7.90237 26.6834 7.90237 27.3166 8.29289 27.7071L14.6569 34.0711C15.0474 34.4616 15.6805 34.4616 16.0711 34.0711C16.4616 33.6805 16.4616 33.0474 16.0711 32.6569L10.4142 27L16.0711 21.3431C16.4616 20.9526 16.4616 20.3195 16.0711 19.9289C15.6805 19.5384 15.0474 19.5384 14.6569 19.9289L8.29289 26.2929ZM9 28L35 28L35 26L9 26L9 28Z" fill="#999999"/>
<rect width="14" height="9" transform="matrix(1 0 0 -1 2 26)" fill="white"/>
</svg>
