<svg width="380" height="381" viewBox="0 0 380 381" fill="none" xmlns="http://www.w3.org/2000/svg">
<rect width="380" height="380" rx="190" fill="#D3D8DE"/>
<mask id="mask0_785_20" style="mask-type:alpha" maskUnits="userSpaceOnUse" x="0" y="1" width="380" height="380">
<rect y="1" width="380" height="380" rx="190" fill="#D3D8DE"/>
</mask>
<g mask="url(#mask0_785_20)">
<path d="M190 267C201.289 267 212.324 263.657 221.71 257.394C231.097 251.131 238.412 242.228 242.732 231.813C247.052 221.398 248.183 209.937 245.98 198.88C243.778 187.823 238.342 177.667 230.359 169.695C222.377 161.723 212.207 156.295 201.135 154.095C190.063 151.896 178.587 153.025 168.158 157.339C157.728 161.653 148.814 168.959 142.542 178.333C136.271 187.706 132.923 198.726 132.923 210C132.923 225.117 138.937 239.616 149.641 250.305C160.345 260.995 174.862 267 190 267ZM190 283.286C154.623 283.286 84 305.109 84 348.429V381H296V348.429C296 305.109 225.378 283.286 190 283.286Z" fill="#F5F6F7"/>
</g>
</svg>
