<?xml version="1.0" standalone="no"?>
<!DOCTYPE svg PUBLIC "-//W3C//DTD SVG 20010904//EN"
 "http://www.w3.org/TR/2001/REC-SVG-20010904/DTD/svg10.dtd">
<svg version="1.0" xmlns="http://www.w3.org/2000/svg"
 width="512.000000pt" height="512.000000pt" viewBox="0 0 512.000000 512.000000"
 preserveAspectRatio="xMidYMid meet">

<g transform="translate(0.000000,512.000000) scale(0.100000,-0.100000)"
fill="#ffffff" stroke="none">
<path d="M3145 2775 c-73 -17 -132 -38 -292 -104 -221 -90 -349 -115 -543
-105 -154 8 -158 10 -162 47 l-3 32 -190 6 c-149 4 -206 10 -267 27 -91 25
-287 65 -413 83 -57 9 -176 14 -325 13 -257 0 -347 -11 -606 -75 -155 -38
-174 -46 -174 -74 0 -14 -8 -25 -20 -28 -28 -7 -28 -57 0 -64 11 -3 20 -13 20
-23 0 -48 302 -188 508 -236 203 -47 523 -34 942 40 74 13 165 27 202 30 l67
6 3 -42 3 -43 53 -3 c51 -3 52 -4 53 -35 3 -96 -3 -112 -92 -250 -40 -60 -83
-143 -100 -188 -38 -104 -55 -136 -78 -149 -24 -12 -82 -13 -132 -1 -42 10
-69 -2 -69 -29 0 -26 28 -39 98 -46 108 -12 121 -5 245 120 103 104 193 173
216 164 5 -1 -4 -36 -21 -77 -53 -134 -27 -185 85 -161 65 13 91 40 63 68 -13
13 -23 14 -61 5 -44 -10 -45 -10 -39 11 4 11 14 25 23 30 40 23 121 114 121
137 0 37 -27 67 -65 75 -19 3 -37 13 -39 23 -17 54 -76 281 -76 289 0 6 10 12
23 14 18 2 23 11 28 48 12 95 3 90 163 90 296 0 428 25 664 123 197 83 176 81
672 73 596 -9 816 -20 911 -45 42 -11 129 -47 193 -80 170 -89 218 -83 311 42
58 76 76 111 69 130 -12 32 -174 83 -354 112 -163 25 -435 35 -1005 34 -421
-1 -564 -4 -610 -14z m1325 -65 c195 -10 368 -35 487 -71 l72 -22 -15 -28
c-26 -51 -89 -109 -118 -109 -15 0 -84 29 -154 64 -81 41 -154 71 -202 81
-106 24 -436 37 -970 38 l-455 2 -130 -54 c-290 -121 -334 -131 -610 -137
-190 -5 -236 0 -222 23 3 5 58 5 129 0 239 -15 374 13 694 147 181 75 172 74
774 75 294 0 618 -4 720 -9z m-3167 -24 c116 -19 368 -72 415 -87 l32 -11 0
-88 0 -89 -52 -10 c-371 -76 -761 -103 -953 -67 -126 24 -284 78 -390 134 -97
52 -100 57 -74 123 10 25 21 29 157 58 235 51 332 61 562 56 119 -2 246 -10
303 -19z m547 -186 c0 -64 -3 -80 -15 -80 -12 0 -15 16 -15 80 0 64 3 80 15
80 12 0 15 -16 15 -80z m120 0 c0 -79 0 -80 -25 -80 -25 0 -25 1 -25 80 0 79
0 80 25 80 25 0 25 -1 25 -80z m110 0 c0 -73 -2 -80 -20 -80 -18 0 -20 7 -20
80 0 73 2 80 20 80 18 0 20 -7 20 -80z m-20 -160 c0 -5 -22 -10 -50 -10 -27 0
-50 5 -50 10 0 6 23 10 50 10 28 0 50 -4 50 -10z m10 -332 c7 -29 15 -58 17
-65 3 -6 -19 -23 -50 -38 -30 -14 -72 -39 -92 -55 -44 -35 -50 -37 -40 -13 9
26 138 223 145 223 4 0 12 -24 20 -52z m120 -142 c0 -3 -4 -8 -10 -11 -5 -3
-10 -1 -10 4 0 6 5 11 10 11 6 0 10 -2 10 -4z"/>
</g>
</svg>
